HIERARCHY
ROOT Hips
{
	OFFSET	0.00	0.00	0.00
	CHANNELS 6 Xposition Yposition Zposition Zrotation Xrotation Yrotation
	JOINT Chest
	{
		OFFSET	0.000000	6.275751	0.000000
		CHANNELS 3 Zrotation Xrotation Yrotation
		JOINT Neck
		{
			OFFSET	0.000000	14.296947	0.000000
			CHANNELS 3 Zrotation Xrotation Yrotation
			JOINT Head
			{
				OFFSET	0.000000	2.637461	0.000000
				CHANNELS 3 Zrotation Xrotation Yrotation
				End Site
				{
					OFFSET	0.000000	4.499004	0.000000
				}
			}
		}
		JOINT LeftCollar
		{
			OFFSET	1.120000	11.362855	1.870000
			CHANNELS 3 Zrotation Xrotation Yrotation
			JOINT LeftUpArm
			{
				OFFSET	4.565688	2.019026	-1.821179
				CHANNELS 3 Zrotation Xrotation Yrotation
				JOINT LeftLowArm
				{
					OFFSET	0.219729	-10.348825	-0.061708
					CHANNELS 3 Zrotation Xrotation Yrotation
					JOINT LeftHand
					{
						OFFSET	0.087892	-10.352228	2.178217
						CHANNELS 3 Zrotation Xrotation Yrotation
						End Site
						{
							OFFSET	0.131837	-6.692379	1.711456
						}
					}
				}
			}
		}
		JOINT RightCollar
		{
			OFFSET	-1.120000	11.362855	1.870000
			CHANNELS 3 Zrotation Xrotation Yrotation
			JOINT RightUpArm
			{
				OFFSET	-4.708080	2.034554	-1.821179
				CHANNELS 3 Zrotation Xrotation Yrotation
				JOINT RightLowArm
				{
					OFFSET	-0.263676	-10.428555	-0.061708
					CHANNELS 3 Zrotation Xrotation Yrotation
					JOINT RightHand
					{
						OFFSET	0.000000	-10.255345	2.178217
						CHANNELS 3 Zrotation Xrotation Yrotation
						End Site
						{
							OFFSET	-0.140882	-6.671274	1.711456
						}
					}
				}
			}
		}
	}
	JOINT LeftUpLeg
	{
		OFFSET	3.910000	0.000000	0.000000
		CHANNELS 3 Zrotation Xrotation Yrotation
		JOINT LeftLowLeg
		{
			OFFSET	-0.441177	-17.569450	1.695613
			CHANNELS 3 Zrotation Xrotation Yrotation
			JOINT LeftFoot
			{
				OFFSET	-0.043946	-17.197315	-1.478076
				CHANNELS 3 Zrotation Xrotation Yrotation
				End Site
				{
					OFFSET	0.000000	-3.933155	5.233925
				}
			}
		}
	}
	JOINT RightUpLeg
	{
		OFFSET	-3.910000	0.000000	0.000000
		CHANNELS 3 Zrotation Xrotation Yrotation
		JOINT RightLowLeg
		{
			OFFSET	0.437741	-17.622387	1.695613
			CHANNELS 3 Zrotation Xrotation Yrotation
			JOINT RightFoot
			{
				OFFSET	0.000000	-17.140001	-1.478076
				CHANNELS 3 Zrotation Xrotation Yrotation
				End Site
				{
					OFFSET	0.000000	-4.038528	5.233925
				}
			}
		}
	}
}
MOTION
Frames: 12
Frame Time: 0.04166667
-1.511764	4.946064	13.433031	1.782784	1.134714	114.443886	-1.114882	-0.481652	-0.589526	3.365048	8.576271	-12.384283	0.586739	-3.197051	0.204418	-7.317446	3.762417	-5.505598	21.749599	-9.197653	-47.099327	-6.157008	1.297725	5.129440	-14.270166	2.838228	-3.002953	11.054838	-1.295402	2.829681	-17.399673	-3.694752	38.331955	-2.153126	5.238365	0.794749	14.563086	2.791829	3.091609	2.017970	-2.027098	-1.862422	-2.943596	14.455228	-5.944854	0.359320	-10.033420	-0.123032	-1.598966	2.967902	-22.735571	3.501584	10.800292	11.525897	-4.436807	-8.487782	4.821839	
-1.509511	4.948349	13.411752	1.757666	1.134531	114.488327	-1.110862	-0.434597	-0.483889	3.411608	8.577421	-12.444090	0.611342	-3.248785	0.213533	-7.368752	3.876404	-5.552939	21.818329	-9.180658	-47.035721	-6.207651	1.308548	5.161252	-14.260391	2.837709	-3.000925	11.044736	-1.217055	2.789719	-17.361416	-3.749211	38.186203	-2.187740	5.281620	0.811282	14.590587	2.793320	3.097348	1.989018	-2.013342	-1.834664	-2.955013	14.407022	-6.009286	0.394294	-10.014296	-0.120594	-1.613437	2.971242	-22.608854	3.476311	10.765267	11.368712	-4.379360	-8.501599	4.823054	
-1.511155	4.951782	13.387188	1.737883	1.121686	114.574089	-1.004148	-0.355182	-0.544122	3.324480	8.543172	-12.468138	0.698540	-3.234603	0.243822	-7.647398	4.169702	-5.410825	22.041311	-9.421091	-46.995220	-6.264741	1.299677	5.211323	-14.252519	2.837295	-2.999306	11.184765	-0.845325	2.718491	-17.619188	-4.154312	38.375549	-2.155800	5.275948	0.796681	14.481929	2.787442	3.074750	1.960033	-2.016156	-1.868517	-2.962296	14.365806	-6.060628	0.435167	-9.980628	-0.117834	-1.621794	2.981208	-22.558258	3.455433	10.714374	11.251804	-4.297256	-8.481086	4.827957	
-1.517099	4.955005	13.357173	1.710548	1.086844	114.720299	-0.876705	-0.314672	-0.688510	3.262215	8.798332	-13.863208	1.420089	-2.050341	0.466828	-7.811221	4.274283	-5.292661	22.150888	-9.474416	-45.611046	-6.801283	1.456887	5.265758	-13.536999	2.800763	-2.851453	11.181901	-0.641203	2.729556	-17.646389	-4.447678	38.336185	-2.327723	5.279536	0.928282	14.917581	2.811222	3.165253	1.923568	-2.066537	-2.016191	-2.957881	14.363808	-6.049300	0.486504	-9.946518	-0.114423	-1.622072	3.010178	-22.709606	3.442987	10.634552	11.210077	-4.255500	-8.445712	4.832222	
-1.515975	4.964214	13.332715	1.733945	1.082708	114.719818	-0.838703	-0.240127	-0.656697	3.257544	8.549243	-12.536635	0.778733	-3.004689	0.268748	-7.870252	4.365570	-5.267776	22.236984	-9.532340	-45.814999	-6.821491	1.439229	5.283072	-13.637425	2.805785	-2.872241	11.200891	-0.550902	2.727580	-17.717865	-4.590169	38.533218	-2.236315	5.251516	0.878651	14.922925	2.811474	3.166394	1.905176	-1.971221	-1.982274	-2.954507	14.247667	-6.068378	0.530190	-9.876732	-0.112069	-1.599488	3.100567	-22.561781	3.413627	10.479015	11.073146	-4.168734	-8.364657	4.841628	
-1.509565	4.973163	13.308665	1.679601	1.070629	114.741493	-0.884137	-0.326118	-0.588892	3.295039	8.643032	-12.755672	0.863699	-2.872729	0.296115	-7.869196	4.399156	-5.367656	22.351717	-9.440923	-46.104759	-6.829924	1.387489	5.298356	-13.699210	2.808888	-2.885014	11.263661	-0.553238	2.743607	-17.751705	-4.563140	38.564381	-2.206669	5.214326	0.868500	14.947000	2.812828	3.171375	1.868490	-1.926839	-1.959267	-2.958759	14.078421	-6.131636	0.517851	-9.797936	-0.113850	-1.594123	3.131613	-22.457417	3.394890	10.318840	11.009552	-4.135179	-8.315650	4.846479	
-1.506260	4.974516	13.279901	1.483214	1.017161	114.863159	-1.669806	-0.266288	-0.173977	4.462940	8.312720	-13.319338	0.545102	-2.789856	0.186100	-7.924219	5.028890	-4.747141	23.151390	-10.520979	-47.011990	-6.789370	1.378290	5.288140	-13.725681	2.810220	-2.890478	12.513677	-1.560375	2.236404	-18.193115	-3.886074	38.886806	-2.140747	5.255500	0.784895	14.616769	2.794783	3.102763	1.788975	-2.096012	-2.078955	-2.952347	14.022717	-6.115746	0.540084	-9.756626	-0.112786	-1.654456	2.964713	-22.529228	3.388911	10.321070	10.966214	-4.112893	-8.329689	4.846211	
-1.504022	4.975588	13.253407	1.360217	0.953252	114.944351	-0.915040	-0.851974	-0.688709	3.300251	8.935752	-13.070202	0.931052	-2.791073	0.317906	-7.658786	3.870496	-5.766666	22.088680	-8.735187	-45.807617	-6.845798	1.382364	5.325432	-13.611570	2.804495	-2.866904	11.053215	-0.931492	3.014649	-17.485630	-3.987790	38.647598	-2.187746	5.194343	0.870732	14.754703	2.802206	3.131474	1.754938	-2.220479	-2.149850	-2.953119	14.003994	-6.124979	0.554025	-9.741578	-0.112003	-1.677463	2.864126	-22.620197	3.389937	10.298585	10.979608	-4.081118	-8.308570	4.848972	
-1.503808	4.977382	13.227970	1.372536	0.901971	115.054718	-0.822269	-0.830026	-0.775912	3.261980	9.206711	-14.504740	1.640522	-1.576877	0.525900	-7.675230	3.853866	-5.825294	21.975431	-8.911969	-46.557163	-6.174150	1.161840	4.905787	-14.546991	2.852863	-3.059998	11.024279	-0.853753	3.054624	-17.495052	-4.122550	38.804420	-2.197171	5.176622	0.870567	14.744884	2.801736	3.129369	1.762078	-2.245536	-2.291758	-2.945089	14.038953	-6.078883	0.583432	-9.746992	-0.109904	-1.615447	2.953568	-22.713917	3.370273	10.152218	10.916834	-4.077239	-8.286510	4.850688	
-1.506841	4.978466	13.198672	1.405322	0.857292	115.192238	-0.729270	-0.714549	-0.904896	3.260811	9.133837	-14.429118	1.658947	-1.513642	0.529994	-7.782622	4.073762	-5.679907	22.100435	-9.360043	-46.447323	-6.185387	1.140620	4.924177	-14.508789	2.850823	-3.052125	11.100756	-0.559315	3.010869	-17.609907	-4.552485	38.944580	-2.198989	5.175130	0.883746	14.722255	2.800448	3.124717	1.764707	-2.267667	-2.429961	-2.947043	14.082266	-6.077768	0.603312	-9.737274	-0.108592	-1.564152	3.018381	-22.661388	3.345048	10.062681	10.789735	-3.995076	-8.253239	4.856057	
-1.508021	4.982585	13.173647	1.386730	0.777739	115.259811	-0.661306	-0.709215	-0.935195	3.285671	9.104084	-14.508017	1.666343	-1.436549	0.530135	-7.850160	4.261645	-5.609684	22.243580	-9.703779	-46.733166	-6.124589	1.094819	4.870846	-14.557802	2.853435	-3.062209	11.154408	-0.359796	2.975307	-17.699301	-4.859699	39.171059	-2.164598	5.146128	0.883780	14.772999	2.803233	3.135232	1.792322	-2.335663	-2.446933	-2.955099	14.125065	-6.110518	0.682475	-9.737617	-0.103079	-1.502896	3.051072	-22.722023	3.327320	9.927624	10.735685	-3.937952	-8.185523	4.862766	
-1.501202	4.989943	13.154337	1.367109	0.703960	115.208244	-0.652162	-0.807013	-0.861010	3.311682	9.182580	-14.595679	1.696809	-1.340407	0.537005	-7.659343	4.033685	-5.739890	22.155144	-9.484967	-48.048836	-5.894685	1.039749	4.832549	-14.776720	2.865222	-3.107301	11.056603	-0.544690	3.118876	-17.593338	-4.578601	39.252438	-2.074271	5.161764	0.770423	14.477059	2.787242	3.073742	1.838049	-2.332465	-2.354442	-2.961220	14.075750	-6.152920	0.717816	-9.702040	-0.101140	-1.428047	3.094364	-22.522768	3.305166	9.716174	10.660370	-3.791926	-8.062118	4.876019	
